/vscmnt/brussel_pixiu_data/_data_brussel/112/vsc11236/PredSimResults/SUBJ09opt3D/trackIG/worker_05.mot
version=1
nRows=4
nColumns=50
inDegrees=yes
endheader
                time	         pelvis_tilt	         pelvis_list	     pelvis_rotation	           pelvis_tx	           pelvis_ty	           pelvis_tz	       hip_flexion_r	     hip_adduction_r	      hip_rotation_r	        knee_angle_r	       ankle_angle_r	         mtp_angle_r	       hip_flexion_l	     hip_adduction_l	      hip_rotation_l	        knee_angle_l	       ankle_angle_l	         mtp_angle_l	    lumbar_extension	      lumbar_bending	     lumbar_rotation	 ercspn_r/activation	 intobl_r/activation	 extobl_r/activation	    abd_r/activation	    add_r/activation	hamstrings_r/activation	bifemsh_r/activation	glut_max_r/activation	iliopsoas_r/activation	rect_fem_r/activation	  vasti_r/activation	gastroc_r/activation	 soleus_r/activation	tib_ant_r/activation	 ercspn_l/activation	 intobl_l/activation	 extobl_l/activation	    abd_l/activation	    add_l/activation	hamstrings_l/activation	bifemsh_l/activation	glut_max_l/activation	iliopsoas_l/activation	rect_fem_l/activation	  vasti_l/activation	gastroc_l/activation	 soleus_l/activation	tib_ant_l/activation	
          2.14966673	         -3.20749863	          0.60823684	         -8.35283303	          2.14966673	          0.99793661	          0.00371526	        -11.16668806	         -2.64395578	         -8.20912651	        -12.91182833	          5.89603703	         33.51538632	         23.92539444	         -1.24511062	        -10.07794728	         -0.79321839	          2.04853081	          0.23886308	        -13.11391101	          2.47871430	          8.71724535	          0.01000026	          0.01000006	          0.01000005	          0.04258442	          0.01000016	          0.01729590	          0.07813923	          0.01902573	          0.01000054	          0.01001219	          0.01000037	          0.24029928	          0.23917554	          0.01000018	          0.01570431	          0.20079319	          0.04872530	          0.01000001	          0.22930981	          0.04692814	          0.04456022	          0.02519250	          0.09109547	          0.02085135	          0.01705730	          0.01000241	          0.01000004	          0.29766445	
          2.16399784	         -3.31015769	          0.74941447	         -8.26973743	          2.16875995	          0.99591485	          0.00260457	        -11.72698198	         -3.03691092	         -8.79659647	        -13.63140012	          4.96834981	         34.96691698	         23.33737729	         -0.93745651	        -10.31176944	         -1.38416207	          1.45955448	          0.21114534	        -12.49912151	          1.95820167	          8.92329148	          0.01000020	          0.01000004	          0.01000153	          0.03437410	          0.01000017	          0.02400461	          0.06307400	          0.01535757	          0.01000031	          0.01000020	          0.01231356	          0.21754798	          0.21688009	          0.01000001	          0.01267654	          0.18427448	          0.03933103	          0.05369509	          0.18509872	          0.05519986	          0.03596924	          0.02389264	          0.07353218	          0.01683120	          0.01376880	          0.01238968	          0.01238860	          0.33635172	
          2.17832895	         -3.39180162	          0.93877586	         -8.14577152	          2.18814049	          0.99428091	          0.00141922	        -12.10386937	         -3.51447723	         -9.40633274	        -14.72195668	          3.87597108	         36.40454879	         22.62827891	         -0.57266863	        -10.58011741	         -1.78988433	          0.64168602	          0.20444674	        -11.86921922	          1.36893332	          9.08208781	          0.01000023	          0.01000003	          0.01000014	          0.02774674	          0.01000012	          0.01937811	          0.05091335	          0.01239662	          0.01000066	          0.01000043	          0.01505189	          0.17560465	          0.19145677	          0.01000003	          0.01023263	          0.14874619	          0.03174798	          0.09531755	          0.14941166	          0.06145103	          0.02903457	          0.05476357	          0.05935511	          0.01358614	          0.01111431	          0.01000097	          0.01000009	          0.38733970	
          2.19266006	         -3.45533934	          1.15847216	         -7.98267311	          2.20745069	          0.99331726	          0.00013931	        -12.20032595	         -4.07188971	        -10.02504458	        -16.30520069	          2.59088216	         37.71792712	         21.90701706	         -0.16842219	        -10.89050511	         -2.19202172	         -0.12661860	          0.17160684	        -11.26791828	          0.73445996	          9.19365766	          0.03083924	          0.01000002	          0.01000006	          0.02239715	          0.01000009	          0.03310743	          0.04109728	          0.01000656	          0.01000147	          0.01000038	          0.01901327	          0.14174791	          0.15454378	          0.01000001	          0.01238519	          0.12006779	          0.02562695	          0.13736232	          0.12060544	          0.06170902	          0.02343681	          0.06839807	          0.04791139	          0.01096675	          0.03204974	          0.01000014	          0.01000007	          0.41310956	
